<svg xmlns="http://www.w3.org/2000/svg" width="1280" height="600" viewBox="0 0 1280 600" role="img">
<rect width="1280" height="600" fill="#f4f6f9"/>
<rect x="8" y="8" width="1264" height="584" rx="14" ry="14" fill="#ffffff" stroke="#d4dae3" stroke-width="1"/><path d="M8 22 a14 14 0 0 1 14 -14 h1236 a14 14 0 0 1 14 14 v22 h-1264 z" fill="#eef1f6" stroke="#d4dae3"/><circle cx="26" cy="26" r="4" fill="#d4dae3"/><circle cx="40" cy="26" r="4" fill="#d4dae3"/><circle cx="54" cy="26" r="4" fill="#d4dae3"/><rect x="74" y="16" width="1150" height="20" rx="10" ry="10" fill="#ffffff" stroke="#d4dae3" stroke-width="1"/><text x="86" y="30" font-family="DM Sans, Arial, sans-serif" font-size="11" font-weight="400" fill="#8590a8" text-anchor="start" letter-spacing="0">ask.beyondfreedomfinancial.com</text><rect x="8" y="44" width="1264" height="548" rx="0" ry="0" fill="#001532" stroke="none" stroke-width="1"/><circle cx="640" cy="280" r="34" fill="rgba(52,152,219,0.18)" stroke="#15679f"/><circle cx="640" cy="280" r="50" fill="none" stroke="rgba(52,152,219,0.4)" stroke-dasharray="4 6"/><text x="640" y="344" font-family="DM Sans, Arial, sans-serif" font-size="13" font-weight="500" fill="#cfe2f3" text-anchor="middle" letter-spacing="0">Opening Ask Shona/Jay</text><rect x="420" y="380" width="440" height="50" rx="8" ry="8" fill="#eef6fc" stroke="#d7ecfa" stroke-width="1"/><rect x="420" y="380" width="3" height="50" rx="0" ry="0" fill="#15679f" stroke="none" stroke-width="1"/><text x="430" y="401" font-family="DM Sans, Arial, sans-serif" font-size="11" font-weight="700" fill="#15679f" text-anchor="start" letter-spacing="0">Doherty threshold: a branded, animated hold under ~400ms reads as</text><text x="430" y="416" font-family="DM Sans, Arial, sans-serif" font-size="11" font-weight="400" fill="#15679f" text-anchor="start" letter-spacing="0">'working', preventing the 'is it broken?' bounce on first paint.</text>
</svg>