<svg xmlns="http://www.w3.org/2000/svg" width="1280" height="620" viewBox="0 0 1280 620" role="img">
<rect width="1280" height="620" fill="#f4f6f9"/>
<rect x="8" y="8" width="1264" height="604" rx="14" ry="14" fill="#ffffff" stroke="#d4dae3" stroke-width="1"/><path d="M8 22 a14 14 0 0 1 14 -14 h1236 a14 14 0 0 1 14 14 v22 h-1264 z" fill="#eef1f6" stroke="#d4dae3"/><circle cx="26" cy="26" r="4" fill="#d4dae3"/><circle cx="40" cy="26" r="4" fill="#d4dae3"/><circle cx="54" cy="26" r="4" fill="#d4dae3"/><rect x="74" y="16" width="1150" height="20" rx="10" ry="10" fill="#ffffff" stroke="#d4dae3" stroke-width="1"/><text x="86" y="30" font-family="DM Sans, Arial, sans-serif" font-size="11" font-weight="400" fill="#8590a8" text-anchor="start" letter-spacing="0">ask.beyondfreedomfinancial.com/admin/wiki</text><rect x="24" y="44" width="1216" height="46" rx="10" ry="10" fill="#001532" stroke="none" stroke-width="1"/><rect x="38" y="56" width="22" height="22" rx="6" ry="6" fill="#15679f" stroke="none" stroke-width="1"/><text x="68" y="72" font-family="DM Sans, Arial, sans-serif" font-size="12" font-weight="700" fill="#fff" text-anchor="start" letter-spacing="0">Ask Shona/Jay</text><text x="194" y="72" font-family="DM Sans, Arial, sans-serif" font-size="12" font-weight="500" fill="#9fb0c4" text-anchor="start" letter-spacing="0">Review</text><text x="268.4" y="72" font-family="DM Sans, Arial, sans-serif" font-size="12" font-weight="500" fill="#9fb0c4" text-anchor="start" letter-spacing="0">Sources</text><rect x="341.2" y="55" width="57.6" height="24" rx="12" ry="12" fill="rgba(52,152,219,0.22)" stroke="none" stroke-width="1"/><text x="349.2" y="72" font-family="DM Sans, Arial, sans-serif" font-size="12" font-weight="500" fill="#fff" text-anchor="start" letter-spacing="0">Wiki</text><text x="410.8" y="72" font-family="DM Sans, Arial, sans-serif" font-size="12" font-weight="500" fill="#9fb0c4" text-anchor="start" letter-spacing="0">Questions</text><text x="504.4" y="72" font-family="DM Sans, Arial, sans-serif" font-size="12" font-weight="500" fill="#9fb0c4" text-anchor="start" letter-spacing="0">Health</text><text x="578.8" y="72" font-family="DM Sans, Arial, sans-serif" font-size="12" font-weight="500" fill="#9fb0c4" text-anchor="start" letter-spacing="0">Settings</text><rect x="1196" y="55" width="26" height="24" rx="12" ry="12" fill="rgba(255,255,255,0.08)" stroke="none" stroke-width="1"/><text x="24" y="122" font-family="DM Sans, Arial, sans-serif" font-size="10" font-weight="700" fill="#15679f" text-anchor="start" letter-spacing="1.5">ADMIN CONSOLE</text><text x="24" y="152" font-family="Montserrat, Arial, sans-serif" font-size="28" font-weight="700" fill="#001532" text-anchor="start" letter-spacing="0">Wiki Review</text><text x="24" y="174" font-family="DM Sans, Arial, sans-serif" font-size="12" font-weight="400" fill="#8590a8" text-anchor="start" letter-spacing="0">Drafts are not client-visible until published by an admin.</text><rect x="24" y="202" width="394.6666666666667" height="180" rx="14" ry="14" fill="#ffffff" stroke="#d4dae3" stroke-width="1"/><rect x="42" y="220" width="70" height="26" rx="13" ry="13" fill="#e0f4ee" stroke="none" stroke-width="1"/><text x="77" y="237" font-family="DM Sans, Arial, sans-serif" font-size="11" font-weight="600" fill="#0a6b50" text-anchor="middle" letter-spacing="0">published</text><text x="42" y="272" font-family="Montserrat, Arial, sans-serif" font-size="14" font-weight="700" fill="#001532" text-anchor="start" letter-spacing="0">Draft page title</text><rect x="42" y="286" width="358.6666666666667" height="6" rx="3" ry="3" fill="#dfe5ee" stroke="none" stroke-width="1"/><rect x="42" y="299" width="358.6666666666667" height="6" rx="3" ry="3" fill="#dfe5ee" stroke="none" stroke-width="1"/><rect x="42" y="312" width="215.20000000000002" height="6" rx="3" ry="3" fill="#dfe5ee" stroke="none" stroke-width="1"/><rect x="42" y="342" width="110" height="30" rx="15" ry="15" fill="#ffffff" stroke="#e7ebf1" stroke-width="1"/><rect x="434.6666666666667" y="202" width="394.6666666666667" height="180" rx="14" ry="14" fill="#ffffff" stroke="#d4dae3" stroke-width="1"/><rect x="452.6666666666667" y="220" width="70" height="26" rx="13" ry="13" fill="#fbf1dc" stroke="none" stroke-width="1"/><text x="487.6666666666667" y="237" font-family="DM Sans, Arial, sans-serif" font-size="11" font-weight="600" fill="#8a5200" text-anchor="middle" letter-spacing="0">draft</text><text x="452.6666666666667" y="272" font-family="Montserrat, Arial, sans-serif" font-size="14" font-weight="700" fill="#001532" text-anchor="start" letter-spacing="0">Draft page title</text><rect x="452.6666666666667" y="286" width="358.6666666666667" height="6" rx="3" ry="3" fill="#dfe5ee" stroke="none" stroke-width="1"/><rect x="452.6666666666667" y="299" width="358.6666666666667" height="6" rx="3" ry="3" fill="#dfe5ee" stroke="none" stroke-width="1"/><rect x="452.6666666666667" y="312" width="215.20000000000002" height="6" rx="3" ry="3" fill="#dfe5ee" stroke="none" stroke-width="1"/><rect x="452.6666666666667" y="342" width="110" height="30" rx="15" ry="15" fill="#ffffff" stroke="#e7ebf1" stroke-width="1"/><rect x="845.3333333333334" y="202" width="394.6666666666667" height="180" rx="14" ry="14" fill="#ffffff" stroke="#d4dae3" stroke-width="1"/><rect x="863.3333333333334" y="220" width="70" height="26" rx="13" ry="13" fill="#fbf1dc" stroke="none" stroke-width="1"/><text x="898.3333333333334" y="237" font-family="DM Sans, Arial, sans-serif" font-size="11" font-weight="600" fill="#8a5200" text-anchor="middle" letter-spacing="0">draft</text><text x="863.3333333333334" y="272" font-family="Montserrat, Arial, sans-serif" font-size="14" font-weight="700" fill="#001532" text-anchor="start" letter-spacing="0">Draft page title</text><rect x="863.3333333333334" y="286" width="358.6666666666667" height="6" rx="3" ry="3" fill="#dfe5ee" stroke="none" stroke-width="1"/><rect x="863.3333333333334" y="299" width="358.6666666666667" height="6" rx="3" ry="3" fill="#dfe5ee" stroke="none" stroke-width="1"/><rect x="863.3333333333334" y="312" width="215.20000000000002" height="6" rx="3" ry="3" fill="#dfe5ee" stroke="none" stroke-width="1"/><rect x="863.3333333333334" y="342" width="110" height="30" rx="15" ry="15" fill="#ffffff" stroke="#e7ebf1" stroke-width="1"/><rect x="24" y="402" width="560" height="50" rx="8" ry="8" fill="#eef6fc" stroke="#d7ecfa" stroke-width="1"/><rect x="24" y="402" width="3" height="50" rx="0" ry="0" fill="#15679f" stroke="none" stroke-width="1"/><text x="34" y="423" font-family="DM Sans, Arial, sans-serif" font-size="11" font-weight="700" fill="#15679f" text-anchor="start" letter-spacing="0">Default-safe publishing: a draft sits visibly un-published until an admin acts —</text><text x="34" y="438" font-family="DM Sans, Arial, sans-serif" font-size="11" font-weight="400" fill="#15679f" text-anchor="start" letter-spacing="0">loss-averse gate against client-visible errors.</text>
</svg>